<svg width="517" height="197" viewBox="0 0 517 197" fill="none" xmlns="http://www.w3.org/2000/svg">
<path d="M17.787 140.854C17.4491 138.775 17.2932 136.67 17.2932 134.591V83.2882C17.2932 63.5364 31.3275 47.0332 49.9619 43.1868H44.4002C25.22 43.1868 9.54834 58.8843 9.54834 78.0384V127.184C9.54834 133.422 11.2117 139.269 14.1225 144.363L17.787 140.854Z" fill="#F58220"/>
<path d="M148.272 52.8295L138.345 42.9016C136.473 41.0304 133.433 41.0304 131.561 42.9016L68.3549 106.108L58.271 96.0237C56.3998 94.1524 53.359 94.1524 51.4878 96.0237L40.1044 107.407C38.2331 109.278 38.2331 112.319 40.1044 114.19L53.5929 127.679L57.5433 131.629L63.5209 137.607C65.3921 139.478 68.4329 139.478 70.3041 137.607L148.272 59.6387C150.144 57.7674 150.144 54.7267 148.272 52.8555V52.8295Z" fill="white"/>
<path d="M150.408 81.3141C150.434 81.9638 150.46 82.6395 150.46 83.2893V134.592C150.46 143.87 147.367 152.421 142.143 159.282C139.102 163.362 135.282 166.845 130.89 169.47C126.445 172.199 121.429 174.096 116.102 174.979H122.131C141.311 174.979 156.983 159.308 156.983 140.128V90.9821C156.983 86.2001 155.995 81.6259 154.228 77.4677L150.408 81.2881V81.3141Z" fill="#F58220"/>
<path d="M28.1989 190.235C24.5864 190.235 21.1298 188.91 18.4788 186.493L4.47052 173.68C1.61168 171.081 0.02632 167.572 0.000330529 163.778C-0.0256589 159.984 1.48175 156.449 4.26262 153.772L17.8031 140.829C17.4653 138.75 17.3093 136.645 17.3093 134.566V83.2632C17.3093 60.7045 35.6839 42.3301 58.2427 42.3301H109.416L124.698 27.0484C127.375 24.3715 130.961 22.8901 134.782 22.8901C138.602 22.8901 142.163 24.3715 144.866 27.0484L164.721 46.8782C170.283 52.4399 170.283 61.4842 164.721 67.0199L150.453 81.288C150.479 81.9378 150.505 82.6135 150.505 83.2632V134.566C150.505 157.125 132.157 175.499 109.572 175.499H58.2687C55.2799 175.499 52.2911 175.161 49.3803 174.512L38.7246 185.739C36.0217 188.598 32.2013 190.209 28.2509 190.209L28.1989 190.235ZM58.2167 51.4524C40.6738 51.4524 26.3796 65.7465 26.3796 83.2892V134.592C26.3796 136.931 26.6395 139.296 27.1853 141.635L27.887 144.754L25.2101 146.469C24.9242 146.651 24.6643 146.859 24.4304 147.067L10.5261 160.347C9.59045 161.257 9.07066 162.427 9.07066 163.674C9.07066 164.922 9.61645 166.091 10.5781 166.975L24.5864 179.787C25.548 180.671 26.8215 181.165 28.1729 181.165C29.6543 181.165 31.0577 180.567 32.0453 179.528L43.9745 166.975C43.9745 166.975 44.1564 166.741 44.2604 166.637L46.1836 164.246L49.1204 165.129C52.0832 166.013 55.124 166.455 58.2167 166.455H109.52C127.089 166.455 141.357 152.161 141.357 134.618V83.3152C141.357 82.2237 141.305 81.1321 141.201 80.0665L140.967 77.9095L158.224 60.6526C160.225 58.6514 160.225 55.3767 158.224 53.3496L138.394 33.5198C137.433 32.5582 136.133 32.0124 134.756 32.0124C133.378 32.0124 132.079 32.5322 131.117 33.5198L113.028 51.6083L111.027 51.5043C110.533 51.5043 110.04 51.4783 109.546 51.4783H58.2427L58.2167 51.4524Z" fill="white"/>
<path d="M210.471 93.2453H199.297V113H185.528V45.1555H210.471C226.568 45.1555 234.616 53.0042 234.616 68.7016C234.616 76.6167 232.554 82.7028 228.43 86.9597C224.373 91.1501 218.386 93.2453 210.471 93.2453ZM199.297 81.4723H210.371C217.222 81.4723 220.648 77.2154 220.648 68.7016C220.648 64.5112 219.816 61.518 218.154 59.7221C216.491 57.8597 213.897 56.9286 210.371 56.9286H199.297V81.4723ZM270.021 90.2522V113H256.253V45.1555H282.593C298.556 45.1555 306.538 52.6051 306.538 67.5043C306.538 76.3507 303.212 82.8691 296.56 87.0595L306.238 113H291.173L283.291 90.2522H270.021ZM282.792 78.4791C286.051 78.4791 288.479 77.4814 290.075 75.486C291.672 73.4906 292.47 70.8633 292.47 67.6041C292.47 64.3449 291.605 61.7508 289.876 59.8219C288.213 57.893 285.785 56.9286 282.593 56.9286H270.021V78.4791H282.792ZM330.095 113V45.1555H343.864V113H330.095ZM370.616 113V45.1555H394.062L406.035 94.6421L418.007 45.1555H441.453V113H427.685V60.5203H426.188L412.919 110.007H399.15L385.881 60.5203H384.384V113H370.616ZM468.232 113V45.1555H512.131V57.1281H482V72.9917H506.145V84.7647H482V101.027H512.131V113H468.232Z" fill="white"/>
<path d="M210.52 133.2H219.22L209.74 174H194.44L184.96 133.2H193.66L200.74 166.8H203.44L210.52 133.2ZM229.993 174V133.2H238.273V174H229.993ZM265.101 139.68C260.741 139.68 258.561 141.12 258.561 144C258.561 145.28 259.101 146.26 260.181 146.94C261.261 147.62 263.781 148.6 267.741 149.88C271.741 151.16 274.541 152.62 276.141 154.26C277.741 155.86 278.541 158.34 278.541 161.7C278.541 165.98 277.241 169.22 274.641 171.42C272.041 173.62 268.641 174.72 264.441 174.72C261.321 174.72 257.501 174.24 252.981 173.28L250.821 172.86L251.661 166.44C257.021 167.16 261.121 167.52 263.961 167.52C268.201 167.52 270.321 165.76 270.321 162.24C270.321 160.96 269.821 159.96 268.821 159.24C267.861 158.52 265.921 157.74 263.001 156.9C258.361 155.58 255.081 154.02 253.161 152.22C251.281 150.38 250.341 147.84 250.341 144.6C250.341 140.52 251.581 137.48 254.061 135.48C256.541 133.48 259.941 132.48 264.261 132.48C267.221 132.48 270.981 132.88 275.541 133.68L277.701 134.1L277.041 140.64C271.401 140 267.421 139.68 265.101 139.68ZM290.597 174V133.2H298.877V174H290.597ZM321.625 164.4C322.825 166.48 325.045 167.52 328.285 167.52C331.525 167.52 333.725 166.48 334.885 164.4C336.085 162.28 336.685 158.76 336.685 153.84C336.685 148.88 336.085 145.28 334.885 143.04C333.685 140.8 331.485 139.68 328.285 139.68C325.085 139.68 322.885 140.8 321.685 143.04C320.485 145.28 319.885 148.88 319.885 153.84C319.885 158.76 320.465 162.28 321.625 164.4ZM341.365 169.68C338.845 173.04 334.485 174.72 328.285 174.72C322.085 174.72 317.705 173.04 315.145 169.68C312.625 166.28 311.365 160.98 311.365 153.78C311.365 146.58 312.625 141.24 315.145 137.76C317.705 134.24 322.085 132.48 328.285 132.48C334.485 132.48 338.845 134.24 341.365 137.76C343.925 141.24 345.205 146.58 345.205 153.78C345.205 160.98 343.925 166.28 341.365 169.68ZM357.706 174V133.2H371.686L381.526 166.8H382.126V133.2H390.406V174H376.786L366.586 140.4H365.986V174H357.706Z" fill="white"/>
</svg>
